<?xml version="1.0" encoding="UTF-8" standalone="no"?>
<!DOCTYPE svg PUBLIC "-//W3C//DTD SVG 1.1//EN"
 "http://www.w3.org/Graphics/SVG/1.1/DTD/svg11.dtd">
<!-- Generated by graphviz version 2.40.1 (20161225.0304)
 -->
<!-- Title: packages Pages: 1 -->
<svg width="479pt" height="260pt"
 viewBox="0.00 0.00 478.50 260.00" xmlns="http://www.w3.org/2000/svg" xmlns:xlink="http://www.w3.org/1999/xlink">
<g id="graph0" class="graph" transform="scale(1 1) rotate(0) translate(4 256)">
<title>packages</title>
<polygon fill="#ffffff" stroke="transparent" points="-4,4 -4,-256 474.5,-256 474.5,4 -4,4"/>
<!-- 0 -->
<g id="node1" class="node">
<title>0</title>
<polygon fill="none" stroke="#000000" points="54,-36 0,-36 0,0 54,0 54,-36"/>
<text text-anchor="middle" x="27" y="-14.3" font-family="Times,serif" font-size="14.00" fill="#000000">staej</text>
</g>
<!-- 1 -->
<g id="node2" class="node">
<title>1</title>
<polygon fill="none" stroke="#000000" points="203.5,-36 72.5,-36 72.5,0 203.5,0 203.5,-36"/>
<text text-anchor="middle" x="138" y="-14.3" font-family="Times,serif" font-size="14.00" fill="#000000">staej.enter&#45;staej</text>
</g>
<!-- 5 -->
<g id="node6" class="node">
<title>5</title>
<polygon fill="none" stroke="#000000" points="203,-108 73,-108 73,-72 203,-72 203,-108"/>
<text text-anchor="middle" x="138" y="-86.3" font-family="Times,serif" font-size="14.00" fill="#000000">staej.import_zip</text>
</g>
<!-- 1&#45;&gt;5 -->
<g id="edge1" class="edge">
<title>1&#45;&gt;5</title>
<path fill="none" stroke="#000000" d="M138,-36.1686C138,-43.869 138,-53.0257 138,-61.5834"/>
<polygon fill="#000000" stroke="#000000" points="138,-71.5867 133.5001,-61.5867 138,-66.5867 138.0001,-61.5867 138.0001,-61.5867 138.0001,-61.5867 138,-66.5867 142.5001,-61.5868 138,-71.5867 138,-71.5867"/>
</g>
<!-- 2 -->
<g id="node3" class="node">
<title>2</title>
<polygon fill="none" stroke="#000000" points="350,-252 234,-252 234,-216 350,-216 350,-252"/>
<text text-anchor="middle" x="292" y="-230.3" font-family="Times,serif" font-size="14.00" fill="#000000">staej.gnotifier</text>
</g>
<!-- 3 -->
<g id="node4" class="node">
<title>3</title>
<polygon fill="none" stroke="#000000" points="470.5,-36 349.5,-36 349.5,0 470.5,0 470.5,-36"/>
<text text-anchor="middle" x="410" y="-14.3" font-family="Times,serif" font-size="14.00" fill="#000000">staej.gui_extra</text>
</g>
<!-- 4 -->
<g id="node5" class="node">
<title>4</title>
<polygon fill="none" stroke="#000000" points="341,-108 231,-108 231,-72 341,-72 341,-108"/>
<text text-anchor="middle" x="286" y="-86.3" font-family="Times,serif" font-size="14.00" fill="#000000">staej.handler</text>
</g>
<!-- 7 -->
<g id="node8" class="node">
<title>7</title>
<polygon fill="none" stroke="#000000" points="187,-180 89,-180 89,-144 187,-144 187,-180"/>
<text text-anchor="middle" x="138" y="-158.3" font-family="Times,serif" font-size="14.00" fill="#000000">staej.model</text>
</g>
<!-- 4&#45;&gt;7 -->
<g id="edge2" class="edge">
<title>4&#45;&gt;7</title>
<path fill="none" stroke="#000000" d="M248.6534,-108.1686C229.1231,-117.6698 205.0359,-129.3879 184.3269,-139.4626"/>
<polygon fill="#000000" stroke="#000000" points="175.0781,-143.962 182.1018,-135.5407 179.5743,-141.7747 184.0705,-139.5873 184.0705,-139.5873 184.0705,-139.5873 179.5743,-141.7747 186.0391,-143.6339 175.0781,-143.962 175.0781,-143.962"/>
</g>
<!-- 9 -->
<g id="node10" class="node">
<title>9</title>
<polygon fill="none" stroke="#000000" points="358,-180 220,-180 220,-144 358,-144 358,-180"/>
<text text-anchor="middle" x="289" y="-158.3" font-family="Times,serif" font-size="14.00" fill="#000000">staej.videoplayer</text>
</g>
<!-- 4&#45;&gt;9 -->
<g id="edge3" class="edge">
<title>4&#45;&gt;9</title>
<path fill="none" stroke="#000000" d="M286.757,-108.1686C287.0779,-115.869 287.4594,-125.0257 287.816,-133.5834"/>
<polygon fill="#000000" stroke="#000000" points="288.2328,-143.5867 283.3203,-133.7828 288.0246,-138.5911 287.8164,-133.5954 287.8164,-133.5954 287.8164,-133.5954 288.0246,-138.5911 292.3125,-133.408 288.2328,-143.5867 288.2328,-143.5867"/>
</g>
<!-- 5&#45;&gt;7 -->
<g id="edge4" class="edge">
<title>5&#45;&gt;7</title>
<path fill="none" stroke="#000000" d="M138,-108.1686C138,-115.869 138,-125.0257 138,-133.5834"/>
<polygon fill="#000000" stroke="#000000" points="138,-143.5867 133.5001,-133.5867 138,-138.5867 138.0001,-133.5867 138.0001,-133.5867 138.0001,-133.5867 138,-138.5867 142.5001,-133.5868 138,-143.5867 138,-143.5867"/>
</g>
<!-- 6 -->
<g id="node7" class="node">
<title>6</title>
<polygon fill="none" stroke="#000000" points="331,-36 241,-36 241,0 331,0 331,-36"/>
<text text-anchor="middle" x="286" y="-14.3" font-family="Times,serif" font-size="14.00" fill="#000000">staej.main</text>
</g>
<!-- 6&#45;&gt;4 -->
<g id="edge5" class="edge">
<title>6&#45;&gt;4</title>
<path fill="none" stroke="#000000" d="M286,-36.1686C286,-43.869 286,-53.0257 286,-61.5834"/>
<polygon fill="#000000" stroke="#000000" points="286,-71.5867 281.5001,-61.5867 286,-66.5867 286.0001,-61.5867 286.0001,-61.5867 286.0001,-61.5867 286,-66.5867 290.5001,-61.5868 286,-71.5867 286,-71.5867"/>
</g>
<!-- 8 -->
<g id="node9" class="node">
<title>8</title>
<polygon fill="none" stroke="#000000" points="216.5,-252 49.5,-252 49.5,-216 216.5,-216 216.5,-252"/>
<text text-anchor="middle" x="133" y="-230.3" font-family="Times,serif" font-size="14.00" fill="#000000">staej.model.database</text>
</g>
<!-- 7&#45;&gt;8 -->
<g id="edge6" class="edge">
<title>7&#45;&gt;8</title>
<path fill="none" stroke="#000000" d="M136.7383,-180.1686C136.2035,-187.869 135.5677,-197.0257 134.9734,-205.5834"/>
<polygon fill="#000000" stroke="#000000" points="134.2787,-215.5867 130.4824,-205.299 134.6251,-210.5987 134.9716,-205.6108 134.9716,-205.6108 134.9716,-205.6108 134.6251,-210.5987 139.4608,-205.9225 134.2787,-215.5867 134.2787,-215.5867"/>
</g>
<!-- 9&#45;&gt;2 -->
<g id="edge7" class="edge">
<title>9&#45;&gt;2</title>
<path fill="none" stroke="#000000" d="M289.757,-180.1686C290.0779,-187.869 290.4594,-197.0257 290.816,-205.5834"/>
<polygon fill="#000000" stroke="#000000" points="291.2328,-215.5867 286.3203,-205.7828 291.0246,-210.5911 290.8164,-205.5954 290.8164,-205.5954 290.8164,-205.5954 291.0246,-210.5911 295.3125,-205.408 291.2328,-215.5867 291.2328,-215.5867"/>
</g>
</g>
</svg>
