<?xml version="1.0" encoding="UTF-8" standalone="no"?>
<!-- Generated by graphviz version 2.40.1 (20161225.0304)
 -->

<!-- Title: packages Pages: 1 -->

<svg
   xmlns:dc="http://purl.org/dc/elements/1.1/"
   xmlns:cc="http://creativecommons.org/ns#"
   xmlns:rdf="http://www.w3.org/1999/02/22-rdf-syntax-ns#"
   xmlns:svg="http://www.w3.org/2000/svg"
   xmlns="http://www.w3.org/2000/svg"
   xmlns:sodipodi="http://sodipodi.sourceforge.net/DTD/sodipodi-0.dtd"
   xmlns:inkscape="http://www.inkscape.org/namespaces/inkscape"
   width="479pt"
   height="260pt"
   viewBox="0.00 0.00 478.50 260.00"
   version="1.1"
   id="svg126"
   sodipodi:docname="packages.svg"
   inkscape:export-filename="C:\repositories\staej\packages.png"
   inkscape:export-xdpi="96"
   inkscape:export-ydpi="96"
   inkscape:version="0.92.2 (5c3e80d, 2017-08-06)">
  <metadata
     id="metadata132">
    <rdf:RDF>
      <cc:Work
         rdf:about="">
        <dc:format>image/svg+xml</dc:format>
        <dc:type
           rdf:resource="http://purl.org/dc/dcmitype/StillImage" />
      </cc:Work>
    </rdf:RDF>
  </metadata>
  <defs
     id="defs130" />
  <sodipodi:namedview
     pagecolor="#ffffff"
     bordercolor="#666666"
     borderopacity="1"
     objecttolerance="10"
     gridtolerance="10"
     guidetolerance="10"
     inkscape:pageopacity="0"
     inkscape:pageshadow="2"
     inkscape:window-width="1920"
     inkscape:window-height="1017"
     id="namedview128"
     showgrid="false"
     inkscape:zoom="0.63100209"
     inkscape:cx="-307.90103"
     inkscape:cy="173.33333"
     inkscape:window-x="-8"
     inkscape:window-y="32"
     inkscape:window-maximized="1"
     inkscape:current-layer="graph0" />
  <g
     id="graph0"
     class="graph"
     transform="scale(1 1) rotate(0) translate(4 256)">
    <title
       id="title2">packages</title>
    <polygon
       fill="#ffffff"
       stroke="transparent"
       points="-4,4 -4,-256 474.5,-256 474.5,4 -4,4"
       id="polygon4" />
    <!-- 0 -->
    <!-- 1 -->
    <g
       id="node2"
       class="node">
      <title
         id="title13">1</title>
      <polygon
         fill="none"
         stroke="#000000"
         points="203.5,-36 72.5,-36 72.5,0 203.5,0 203.5,-36"
         id="polygon15" />
      <text
         text-anchor="middle"
         x="138"
         y="-14.3"
         font-family="Times,serif"
         font-size="14.00"
         fill="#000000"
         id="text17">staej.enter-staej</text>
    </g>
    <!-- 5 -->
    <g
       id="node6"
       class="node">
      <title
         id="title20">5</title>
      <polygon
         fill="none"
         stroke="#000000"
         points="203,-108 73,-108 73,-72 203,-72 203,-108"
         id="polygon22" />
      <text
         text-anchor="middle"
         x="138"
         y="-86.3"
         font-family="Times,serif"
         font-size="14.00"
         fill="#000000"
         id="text24">staej.import_zip</text>
    </g>
    <!-- 1&#45;&gt;5 -->
    <g
       id="edge1"
       class="edge">
      <title
         id="title27">1-&gt;5</title>
      <path
         fill="none"
         stroke="#000000"
         d="M138,-36.1686C138,-43.869 138,-53.0257 138,-61.5834"
         id="path29" />
      <polygon
         fill="#000000"
         stroke="#000000"
         points="138,-71.5867 133.5001,-61.5867 138,-66.5867 138.0001,-61.5867 138.0001,-61.5867 138.0001,-61.5867 138,-66.5867 142.5001,-61.5868 138,-71.5867 138,-71.5867"
         id="polygon31" />
    </g>
    <!-- 2 -->
    <g
       id="node3"
       class="node">
      <title
         id="title34">2</title>
      <polygon
         fill="none"
         stroke="#000000"
         points="350,-252 234,-252 234,-216 350,-216 350,-252"
         id="polygon36" />
      <text
         text-anchor="middle"
         x="292"
         y="-230.3"
         font-family="Times,serif"
         font-size="14.00"
         fill="#000000"
         id="text38">staej.gnotifier</text>
    </g>
    <!-- 3 -->
    <!-- 4 -->
    <g
       id="node5"
       class="node">
      <title
         id="title48">4</title>
      <polygon
         fill="none"
         stroke="#000000"
         points="341,-108 231,-108 231,-72 341,-72 341,-108"
         id="polygon50" />
      <text
         text-anchor="middle"
         x="286"
         y="-86.3"
         font-family="Times,serif"
         font-size="14.00"
         fill="#000000"
         id="text52">staej.handler</text>
    </g>
    <!-- 7 -->
    <g
       id="node8"
       class="node">
      <title
         id="title55">7</title>
      <polygon
         points="89,-144 187,-144 187,-180 89,-180 "
         id="polygon57"
         transform="matrix(1.6033696,0,0,0.99271912,-84.453585,-1.1795029)"
         style="fill:none;stroke:#000000" />
      <text
         x="138"
         y="-158.3"
         font-size="14.00"
         id="text59"
         style="font-size:14px;font-family:Times, serif;text-anchor:middle;fill:#000000">staej.model.database</text>
    </g>
    <!-- 4&#45;&gt;7 -->
    <g
       id="edge2"
       class="edge">
      <title
         id="title62">4-&gt;7</title>
      <path
         fill="none"
         stroke="#000000"
         d="M248.6534,-108.1686C229.1231,-117.6698 205.0359,-129.3879 184.3269,-139.4626"
         id="path64" />
      <polygon
         fill="#000000"
         stroke="#000000"
         points="175.0781,-143.962 182.1018,-135.5407 179.5743,-141.7747 184.0705,-139.5873 184.0705,-139.5873 184.0705,-139.5873 179.5743,-141.7747 186.0391,-143.6339 175.0781,-143.962 175.0781,-143.962"
         id="polygon66" />
    </g>
    <!-- 9 -->
    <g
       id="node10"
       class="node">
      <title
         id="title69">9</title>
      <polygon
         fill="none"
         stroke="#000000"
         points="358,-180 220,-180 220,-144 358,-144 358,-180"
         id="polygon71" />
      <text
         text-anchor="middle"
         x="289"
         y="-158.3"
         font-family="Times,serif"
         font-size="14.00"
         fill="#000000"
         id="text73">staej.videoplayer</text>
    </g>
    <!-- 4&#45;&gt;9 -->
    <g
       id="edge3"
       class="edge">
      <title
         id="title76">4-&gt;9</title>
      <path
         fill="none"
         stroke="#000000"
         d="M286.757,-108.1686C287.0779,-115.869 287.4594,-125.0257 287.816,-133.5834"
         id="path78" />
      <polygon
         fill="#000000"
         stroke="#000000"
         points="288.2328,-143.5867 283.3203,-133.7828 288.0246,-138.5911 287.8164,-133.5954 287.8164,-133.5954 287.8164,-133.5954 288.0246,-138.5911 292.3125,-133.408 288.2328,-143.5867 288.2328,-143.5867"
         id="polygon80" />
    </g>
    <!-- 5&#45;&gt;7 -->
    <g
       id="edge4"
       class="edge">
      <title
         id="title83">5-&gt;7</title>
      <path
         fill="none"
         stroke="#000000"
         d="M138,-108.1686C138,-115.869 138,-125.0257 138,-133.5834"
         id="path85" />
      <polygon
         fill="#000000"
         stroke="#000000"
         points="138,-143.5867 133.5001,-133.5867 138,-138.5867 138.0001,-133.5867 138.0001,-133.5867 138.0001,-133.5867 138,-138.5867 142.5001,-133.5868 138,-143.5867 138,-143.5867"
         id="polygon87" />
    </g>
    <!-- 6 -->
    <g
       id="node7"
       class="node">
      <title
         id="title90">6</title>
      <polygon
         fill="none"
         stroke="#000000"
         points="331,-36 241,-36 241,0 331,0 331,-36"
         id="polygon92" />
      <text
         text-anchor="middle"
         x="286"
         y="-14.3"
         font-family="Times,serif"
         font-size="14.00"
         fill="#000000"
         id="text94">staej.main</text>
    </g>
    <!-- 6&#45;&gt;4 -->
    <g
       id="edge5"
       class="edge">
      <title
         id="title97">6-&gt;4</title>
      <path
         fill="none"
         stroke="#000000"
         d="M286,-36.1686C286,-43.869 286,-53.0257 286,-61.5834"
         id="path99" />
      <polygon
         fill="#000000"
         stroke="#000000"
         points="286,-71.5867 281.5001,-61.5867 286,-66.5867 286.0001,-61.5867 286.0001,-61.5867 286.0001,-61.5867 286,-66.5867 290.5001,-61.5868 286,-71.5867 286,-71.5867"
         id="polygon101" />
    </g>
    <!-- 8 -->
    <g
       id="node9"
       class="node">
      <title
         id="title104">8</title>
      <text
         x="133"
         y="-230.3"
         font-size="14.00"
         id="text108"
         style="font-size:14px;font-family:Times, serif;text-anchor:middle;fill:#000000" />
    </g>
    <!-- 7&#45;&gt;8 -->
    <!-- 9&#45;&gt;2 -->
    <g
       id="edge7"
       class="edge">
      <title
         id="title118">9-&gt;2</title>
      <path
         fill="none"
         stroke="#000000"
         d="M289.757,-180.1686C290.0779,-187.869 290.4594,-197.0257 290.816,-205.5834"
         id="path120" />
      <polygon
         fill="#000000"
         stroke="#000000"
         points="291.2328,-215.5867 286.3203,-205.7828 291.0246,-210.5911 290.8164,-205.5954 290.8164,-205.5954 290.8164,-205.5954 291.0246,-210.5911 295.3125,-205.408 291.2328,-215.5867 291.2328,-215.5867"
         id="polygon122" />
    </g>
  </g>
</svg>
